<svg width="214" height="38" viewBox="0 0 214 38" fill="none" xmlns="http://www.w3.org/2000/svg">
<path d="M207.5 26C207.5 25.4477 207.948 25 208.5 25H212.5C213.052 25 213.5 25.4477 213.5 26V30C213.5 30.5523 213.052 31 212.5 31H208.5C207.948 31 207.5 30.5523 207.5 30V26Z" fill="#4A4A45"/>
<path d="M12.864 30.32C11.648 30.32 10.592 30.0853 9.696 29.616C8.8 29.1253 8.10667 28.4213 7.616 27.504V36.816H1.536V13.168H6.816V15.696C7.41333 14.7787 8.14933 14.0747 9.024 13.584C9.92 13.0933 10.9973 12.848 12.256 12.848C13.3867 12.848 14.4213 13.0613 15.36 13.488C16.2987 13.9147 17.12 14.5227 17.824 15.312C18.528 16.1013 19.072 17.0187 19.456 18.064C19.84 19.1093 20.032 20.2613 20.032 21.52C20.032 23.2053 19.7227 24.7093 19.104 26.032C18.4853 27.3547 17.632 28.4 16.544 29.168C15.4773 29.936 14.2507 30.32 12.864 30.32ZM10.752 25.2C11.2 25.2 11.6053 25.104 11.968 24.912C12.352 24.72 12.6827 24.4533 12.96 24.112C13.2373 23.7707 13.4507 23.376 13.6 22.928C13.7493 22.48 13.824 22 13.824 21.488C13.824 20.9547 13.7387 20.4747 13.568 20.048C13.4187 19.6213 13.1947 19.2587 12.896 18.96C12.5973 18.64 12.2453 18.3947 11.84 18.224C11.4347 18.0533 10.9867 17.968 10.496 17.968C10.2187 17.968 9.94133 18.0107 9.664 18.096C9.408 18.16 9.16267 18.2667 8.928 18.416C8.69333 18.544 8.45867 18.7147 8.224 18.928C8.01067 19.1413 7.808 19.3973 7.616 19.696V22.608C7.808 23.0987 8.064 23.5467 8.384 23.952C8.72533 24.336 9.09867 24.6453 9.504 24.88C9.90933 25.0933 10.3253 25.2 10.752 25.2ZM30.5428 30.32C29.0708 30.32 27.7588 30.096 26.6068 29.648C25.4548 29.1787 24.4841 28.5493 23.6948 27.76C22.9268 26.9707 22.3401 26.064 21.9348 25.04C21.5294 24.016 21.3268 22.9387 21.3268 21.808C21.3268 20.1867 21.6788 18.704 22.3828 17.36C23.0868 15.9947 24.1214 14.9067 25.4868 14.096C26.8521 13.264 28.5374 12.848 30.5428 12.848C32.5481 12.848 34.2334 13.2533 35.5988 14.064C36.9641 14.8747 37.9988 15.9413 38.7028 17.264C39.4068 18.5867 39.7588 20.0267 39.7588 21.584C39.7588 21.904 39.7374 22.2347 39.6948 22.576C39.6734 22.896 39.6414 23.184 39.5988 23.44H27.7908C27.8334 24.0373 27.9934 24.528 28.2708 24.912C28.5694 25.2747 28.9321 25.5413 29.3588 25.712C29.8068 25.8827 30.2654 25.968 30.7348 25.968C31.3961 25.968 32.0148 25.8187 32.5908 25.52C33.1881 25.2213 33.5828 24.8053 33.7748 24.272L38.9268 25.744C38.4788 26.64 37.8494 27.4293 37.0388 28.112C36.2494 28.7947 35.3108 29.3387 34.2228 29.744C33.1348 30.128 31.9081 30.32 30.5428 30.32ZM27.6628 19.792H33.2308C33.1668 19.2373 33.0068 18.768 32.7508 18.384C32.5161 18 32.1961 17.7013 31.7908 17.488C31.4068 17.2747 30.9588 17.168 30.4468 17.168C29.9348 17.168 29.4761 17.2747 29.0708 17.488C28.6868 17.7013 28.3668 18 28.1108 18.384C27.8761 18.768 27.7268 19.2373 27.6628 19.792ZM40.8588 21.552C40.8588 19.888 41.1681 18.4053 41.7868 17.104C42.4268 15.7813 43.3014 14.7467 44.4108 14C45.5201 13.232 46.7894 12.848 48.2188 12.848C49.3068 12.848 50.3094 13.104 51.2268 13.616C52.1441 14.1067 52.8374 14.7893 53.3068 15.664V6.64H59.3868V23.28C59.3868 23.856 59.4721 24.2613 59.6428 24.496C59.8134 24.7093 60.1121 24.8373 60.5388 24.88V30C59.4934 30.2133 58.6401 30.32 57.9788 30.32C56.9548 30.32 56.1441 30.128 55.5468 29.744C54.9494 29.36 54.5654 28.7733 54.3948 27.984L54.2668 27.376C53.6908 28.4 52.9121 29.1467 51.9308 29.616C50.9494 30.0853 49.9041 30.32 48.7948 30.32C47.6428 30.32 46.5761 30.1067 45.5948 29.68C44.6348 29.2533 43.7921 28.656 43.0668 27.888C42.3628 27.0987 41.8188 26.1707 41.4348 25.104C41.0508 24.016 40.8588 22.832 40.8588 21.552ZM53.3388 23.472V20.464C53.1468 19.9733 52.8801 19.5467 52.5388 19.184C52.2188 18.8 51.8561 18.5013 51.4508 18.288C51.0454 18.0747 50.6294 17.968 50.2028 17.968C49.7548 17.968 49.3388 18.064 48.9548 18.256C48.5921 18.448 48.2721 18.7147 47.9948 19.056C47.7174 19.3973 47.5041 19.792 47.3548 20.24C47.2054 20.688 47.1308 21.168 47.1308 21.68C47.1308 22.2133 47.2054 22.6933 47.3548 23.12C47.5254 23.5467 47.7601 23.92 48.0588 24.24C48.3574 24.5387 48.7094 24.7733 49.1148 24.944C49.5201 25.1147 49.9681 25.2 50.4588 25.2C50.7574 25.2 51.0348 25.168 51.2908 25.104C51.5468 25.0187 51.7921 24.912 52.0268 24.784C52.2614 24.6347 52.4854 24.4533 52.6988 24.24C52.9334 24.0053 53.1468 23.7493 53.3388 23.472ZM74.46 18.352C73.2867 18.352 72.22 18.48 71.26 18.736C70.3 18.992 69.5853 19.4187 69.116 20.016V30H63.036V13.168H68.604V16.368C69.2013 15.2373 69.948 14.3733 70.844 13.776C71.74 13.1573 72.6893 12.848 73.692 12.848C73.9267 12.848 74.0867 12.848 74.172 12.848C74.2787 12.848 74.3747 12.8587 74.46 12.88V18.352ZM84.6365 30.32C83.1432 30.32 81.8205 30.0853 80.6685 29.616C79.5165 29.1467 78.5458 28.5067 77.7565 27.696C76.9885 26.864 76.4018 25.9253 75.9965 24.88C75.6125 23.8347 75.4205 22.736 75.4205 21.584C75.4205 20.432 75.6125 19.3333 75.9965 18.288C76.4018 17.2213 76.9885 16.2827 77.7565 15.472C78.5458 14.6613 79.5165 14.0213 80.6685 13.552C81.8205 13.0827 83.1432 12.848 84.6365 12.848C86.1512 12.848 87.4738 13.0827 88.6045 13.552C89.7565 14.0213 90.7165 14.6613 91.4845 15.472C92.2738 16.2827 92.8605 17.2213 93.2445 18.288C93.6498 19.3333 93.8525 20.432 93.8525 21.584C93.8525 22.736 93.6498 23.8347 93.2445 24.88C92.8605 25.9253 92.2738 26.864 91.4845 27.696C90.7165 28.5067 89.7565 29.1467 88.6045 29.616C87.4738 30.0853 86.1512 30.32 84.6365 30.32ZM81.6605 21.584C81.6605 22.3307 81.7885 22.9813 82.0445 23.536C82.3005 24.0693 82.6525 24.4853 83.1005 24.784C83.5485 25.0613 84.0605 25.2 84.6365 25.2C85.2125 25.2 85.7245 25.0613 86.1725 24.784C86.6205 24.4853 86.9725 24.0693 87.2285 23.536C87.4845 22.9813 87.6125 22.3307 87.6125 21.584C87.6125 20.8373 87.4845 20.1973 87.2285 19.664C86.9725 19.1093 86.6205 18.6933 86.1725 18.416C85.7245 18.1173 85.2125 17.968 84.6365 17.968C84.0605 17.968 83.5485 18.1173 83.1005 18.416C82.6525 18.6933 82.3005 19.1093 82.0445 19.664C81.7885 20.1973 81.6605 20.8373 81.6605 21.584ZM107.429 18.352C106.255 18.352 105.189 18.48 104.229 18.736C103.269 18.992 102.554 19.4187 102.085 20.016V30H96.0048V13.168H101.573V16.368C102.17 15.2373 102.917 14.3733 103.813 13.776C104.709 13.1573 105.658 12.848 106.661 12.848C106.895 12.848 107.055 12.848 107.141 12.848C107.247 12.848 107.343 12.8587 107.429 12.88V18.352ZM109.157 24.24V13.168H115.237V22.864C115.237 23.5893 115.397 24.1653 115.717 24.592C116.059 24.9973 116.517 25.2 117.093 25.2C117.413 25.2 117.733 25.1573 118.053 25.072C118.373 24.9867 118.693 24.816 119.013 24.56C119.355 24.304 119.685 23.9413 120.005 23.472V13.168H126.085V23.28C126.085 23.856 126.171 24.2613 126.341 24.496C126.512 24.7093 126.811 24.8373 127.237 24.88V30C126.704 30.1067 126.224 30.1813 125.797 30.224C125.371 30.288 124.997 30.32 124.677 30.32C123.653 30.32 122.843 30.128 122.245 29.744C121.648 29.36 121.264 28.7733 121.093 27.984L120.965 27.376C120.176 28.4213 119.227 29.1787 118.117 29.648C117.029 30.096 115.792 30.32 114.405 30.32C112.72 30.32 111.419 29.7973 110.501 28.752C109.605 27.7067 109.157 26.2027 109.157 24.24ZM133.759 30L128.095 13.168H134.335L137.343 24.592L140.383 13.168H146.047L140.383 30H133.759ZM147.63 30V13.168H153.71V30H147.63ZM147.63 11.76V6.64H153.71V11.76H147.63ZM155.858 24.912C155.858 23.7813 156.167 22.7893 156.786 21.936C157.405 21.0613 158.258 20.3787 159.346 19.888C160.455 19.3973 161.714 19.152 163.122 19.152C163.783 19.152 164.402 19.2053 164.978 19.312C165.575 19.4187 166.087 19.5787 166.514 19.792V19.28C166.514 18.4907 166.279 17.904 165.81 17.52C165.362 17.136 164.626 16.944 163.602 16.944C162.663 16.944 161.778 17.104 160.946 17.424C160.135 17.7227 159.282 18.1707 158.386 18.768L156.626 14.992C157.757 14.2667 158.941 13.7333 160.178 13.392C161.437 13.0293 162.781 12.848 164.21 12.848C166.877 12.848 168.935 13.456 170.386 14.672C171.858 15.8667 172.594 17.648 172.594 20.016V23.28C172.594 23.856 172.679 24.2613 172.85 24.496C173.021 24.7093 173.319 24.8373 173.746 24.88V30C173.255 30.1067 172.786 30.1813 172.338 30.224C171.911 30.288 171.527 30.32 171.186 30.32C170.098 30.32 169.266 30.128 168.69 29.744C168.135 29.3387 167.773 28.752 167.602 27.984L167.474 27.376C166.727 28.336 165.863 29.072 164.882 29.584C163.901 30.0747 162.855 30.32 161.746 30.32C160.637 30.32 159.634 30.0853 158.738 29.616C157.842 29.1467 157.138 28.5067 156.626 27.696C156.114 26.864 155.858 25.936 155.858 24.912ZM165.714 25.328C165.949 25.1573 166.141 24.976 166.29 24.784C166.439 24.5707 166.514 24.3573 166.514 24.144V22.896C166.173 22.768 165.778 22.6613 165.33 22.576C164.903 22.4907 164.519 22.448 164.178 22.448C163.453 22.448 162.834 22.6293 162.322 22.992C161.831 23.3547 161.586 23.8133 161.586 24.368C161.586 24.6667 161.671 24.944 161.842 25.2C162.013 25.4347 162.247 25.6267 162.546 25.776C162.845 25.904 163.186 25.968 163.57 25.968C163.933 25.968 164.306 25.9147 164.69 25.808C165.095 25.68 165.437 25.52 165.714 25.328ZM187.366 18.352C186.193 18.352 185.126 18.48 184.166 18.736C183.206 18.992 182.492 19.4187 182.022 20.016V30H175.942V13.168H181.51V16.368C182.108 15.2373 182.854 14.3733 183.75 13.776C184.646 13.1573 185.596 12.848 186.598 12.848C186.833 12.848 186.993 12.848 187.078 12.848C187.185 12.848 187.281 12.8587 187.366 12.88V18.352ZM197.543 30.32C196.049 30.32 194.727 30.0853 193.575 29.616C192.423 29.1467 191.452 28.5067 190.663 27.696C189.895 26.864 189.308 25.9253 188.903 24.88C188.519 23.8347 188.327 22.736 188.327 21.584C188.327 20.432 188.519 19.3333 188.903 18.288C189.308 17.2213 189.895 16.2827 190.663 15.472C191.452 14.6613 192.423 14.0213 193.575 13.552C194.727 13.0827 196.049 12.848 197.543 12.848C199.057 12.848 200.38 13.0827 201.511 13.552C202.663 14.0213 203.623 14.6613 204.391 15.472C205.18 16.2827 205.767 17.2213 206.151 18.288C206.556 19.3333 206.759 20.432 206.759 21.584C206.759 22.736 206.556 23.8347 206.151 24.88C205.767 25.9253 205.18 26.864 204.391 27.696C203.623 28.5067 202.663 29.1467 201.511 29.616C200.38 30.0853 199.057 30.32 197.543 30.32ZM194.567 21.584C194.567 22.3307 194.695 22.9813 194.951 23.536C195.207 24.0693 195.559 24.4853 196.007 24.784C196.455 25.0613 196.967 25.2 197.543 25.2C198.119 25.2 198.631 25.0613 199.079 24.784C199.527 24.4853 199.879 24.0693 200.135 23.536C200.391 22.9813 200.519 22.3307 200.519 21.584C200.519 20.8373 200.391 20.1973 200.135 19.664C199.879 19.1093 199.527 18.6933 199.079 18.416C198.631 18.1173 198.119 17.968 197.543 17.968C196.967 17.968 196.455 18.1173 196.007 18.416C195.559 18.6933 195.207 19.1093 194.951 19.664C194.695 20.1973 194.567 20.8373 194.567 21.584Z" fill="#f8f6f4"/>
</svg>
