<svg width="75" height="149" viewBox="0 0 75 149" fill="none" xmlns="http://www.w3.org/2000/svg">
    <g clip-path="url(#clip0_5_2)">
        <path d="M41.4202 121.968L41.4202 0.652466L33.5957 0.652465L33.5957 121.968L41.4202 121.968Z" fill="#62E884" />
        <path
            d="M0.714472 8.62211C0.714472 13.0237 4.28017 16.5917 8.67859 16.5917C13.0771 16.5917 16.6428 13.0237 16.6428 8.62211C16.6428 4.22059 13.0771 0.652466 8.67859 0.652465C4.28017 0.652465 0.714473 4.22059 0.714472 8.62211Z"
            fill="#62E884" />
        <path
            d="M8.6786 1.30498L8.6786 -2.899e-06L53.2033 -9.52762e-07C65.2195 -4.27521e-07 75 9.78731 75 21.8117C75 33.8361 65.2195 43.6234 53.2033 43.6234L37.5079 43.6234L37.5079 42.2718L53.2033 42.2718C64.4743 42.2718 73.6959 33.0904 73.6959 21.7651C73.6959 10.4864 64.5209 1.25838 53.2033 1.25838L8.6786 1.25837L8.6786 1.30498Z"
            fill="black" />
        <path
            d="M8.67848 17.2442L8.67848 15.9393L53.2032 15.9393C56.4169 15.9393 59.0715 18.5493 59.0715 21.8117C59.0715 25.0274 56.4634 27.6841 53.2032 27.6841L37.5078 27.6841L37.5078 26.379L53.2032 26.379C55.7183 26.379 57.7675 24.3284 57.7675 21.8117C57.7675 19.2949 55.7183 17.2442 53.2032 17.2442L8.67848 17.2442Z"
            fill="black" />
        <path
            d="M0.0623826 48.1442C0.0623831 36.1198 9.84293 26.3325 21.859 26.3325L37.5544 26.3325L37.5544 27.6374L21.859 27.6374C10.5881 27.6374 1.3665 36.8189 1.3665 48.1442C1.3665 59.4695 10.5415 68.6509 21.859 68.6509L37.5544 68.651L37.5544 69.9559L21.859 69.9559C9.84293 69.9559 0.0623821 60.1685 0.0623826 48.1442Z"
            fill="black" />
        <path
            d="M15.9907 48.1441C15.9907 44.9283 18.5989 42.2717 21.859 42.2717L37.5544 42.2717L37.5544 43.5767L21.859 43.5767C19.344 43.5767 17.2947 45.6274 17.2947 48.1441C17.2947 50.6609 19.344 52.7116 21.859 52.7116L37.5544 52.7116L37.5544 54.0166L21.859 54.0166C18.5989 54.0166 15.9907 51.36 15.9907 48.1441Z"
            fill="black" />
        <path
            d="M37.5079 96.2883L37.5079 94.9834L53.2033 94.9834C64.4743 94.9834 73.6959 85.8019 73.6959 74.4766C73.6959 63.1514 64.5209 53.9699 53.2033 53.9699L37.5079 53.9699L37.5079 52.665L53.2033 52.665C65.2195 52.665 75 62.4522 75 74.4766C75 86.501 65.2195 96.2883 53.2033 96.2883L37.5079 96.2883Z"
            fill="black" />
        <path
            d="M37.5078 80.3492L37.5078 79.0442L53.2032 79.0442C55.7183 79.0442 57.7675 76.9935 57.7675 74.4767C57.7675 71.9601 55.7183 69.9094 53.2032 69.9094L37.5078 69.9094L37.5078 68.6044L53.2032 68.6044C56.4169 68.6044 59.0715 71.2143 59.0715 74.4767C59.0715 77.6926 56.4634 80.3492 53.2032 80.3492L37.5078 80.3492Z"
            fill="black" />
        <path
            d="M0.0623826 100.856C0.0623831 88.8315 9.84293 79.0442 21.859 79.0442L37.5544 79.0442L37.5544 80.3492L21.859 80.3492C10.5881 80.3492 1.3665 89.5306 1.3665 100.856C1.3665 112.134 10.5415 121.362 21.859 121.362L37.5544 121.362L37.5544 122.668L21.859 122.668C9.84293 122.621 0.0623821 112.88 0.0623826 100.856Z"
            fill="black" />
        <path
            d="M15.9907 100.856C15.9907 97.64 18.5989 94.9834 21.859 94.9834L37.5544 94.9834L37.5544 96.2884L21.859 96.2884C19.344 96.2884 17.2947 98.3391 17.2947 100.856C17.2947 103.373 19.344 105.423 21.859 105.423L37.5544 105.423L37.5544 106.728L21.859 106.728C18.5989 106.682 15.9907 104.072 15.9907 100.856Z"
            fill="black" />
        <path
            d="M37.5079 149L37.5079 147.695L53.2033 147.695C64.4743 147.695 73.6959 138.514 73.6959 127.189C73.6959 115.91 64.5209 106.682 53.2033 106.682L37.5079 106.682L37.5079 105.377L53.2033 105.377C65.2195 105.377 75 115.164 75 127.189C74.9534 139.212 65.1729 149 53.1568 149L37.5079 149Z"
            fill="black" />
        <path
            d="M37.5078 133.06L37.5078 131.756L53.2032 131.756C55.7183 131.756 57.7675 129.705 57.7675 127.189C57.7675 124.671 55.7183 122.62 53.2032 122.62L37.5078 122.62L37.5078 121.316L53.2032 121.316C56.4169 121.316 59.0715 123.926 59.0715 127.189C59.0715 130.404 56.4634 133.06 53.2032 133.06L37.5078 133.06Z"
            fill="black" />
        <path
            d="M0.0623283 8.62214C0.0623286 3.86832 3.92802 -5.84275e-07 8.6785 -3.76625e-07C13.4291 -1.6897e-07 17.2947 3.86832 17.2947 8.62214C17.2947 13.376 13.4291 17.2443 8.6785 17.2443C3.92802 17.2443 0.0623281 13.376 0.0623283 8.62214ZM15.9907 8.62214C15.9907 4.5674 12.7305 1.30499 8.6785 1.30499C4.62663 1.30499 1.36644 4.5674 1.36644 8.62214C1.36644 12.6769 4.62663 15.9394 8.6785 15.9394C12.6839 15.9394 15.9907 12.6769 15.9907 8.62214Z"
            fill="black" />
        <path
            d="M29.5439 140.378C29.5439 144.779 33.1095 148.348 37.508 148.348C41.9066 148.348 45.4722 144.779 45.4722 140.378C45.4722 135.976 41.9066 132.408 37.508 132.408C33.1095 132.408 29.5439 135.976 29.5439 140.378Z"
            fill="#62E884" />
        <path
            d="M28.8917 140.378C28.8917 135.624 32.7573 131.756 37.5078 131.756C42.2584 131.756 46.124 135.624 46.124 140.378C46.124 145.132 42.2584 149 37.5078 149C32.7573 149 28.8917 145.132 28.8917 140.378ZM44.8199 140.378C44.8199 136.323 41.5598 133.06 37.5078 133.06C33.4559 133.06 30.1957 136.323 30.1957 140.378C30.1957 144.433 33.4559 147.695 37.5078 147.695C41.5132 147.695 44.8199 144.387 44.8199 140.378Z"
            fill="black" />
    </g>
    <defs>
        <clipPath id="clip0_5_2">
            <rect width="149" height="75" fill="white" transform="translate(75) rotate(90)" />
        </clipPath>
    </defs>
</svg>