<svg xmlns="http://www.w3.org/2000/svg" width="137" height="36" viewBox="0 0 137 36" fill="none">
<path d="M64.2365 30.665H63.2626L58.9596 11.6861H51.5726L47.8471 30.665H46.8807L41.7359 10.8557H35.5002L42.3361 35.9268H44.9217H46.8166H48.2472H50.0024H51.5273L55.2114 17.9558L59.3748 35.9268H60.9903H63.0248H64.4554H66.071H68.566L74.6129 10.8557H68.7962L64.2365 30.665Z" fill="#F7F7F7"/>
<path d="M77.3383 10.8557V15.6571H80.8487V35.9268H87.2655V15.6571V10.8557H80.8487H77.3383Z" fill="#F7F7F7"/>
<path d="M83.204 6.97553C84.4648 6.97553 85.3895 6.65091 85.9746 6.00545C86.5597 5.35999 86.8503 4.51068 86.8503 3.46511C86.8503 2.41953 86.5559 1.61932 85.9746 0.970082C85.3895 0.324621 84.4648 0 83.204 0C81.9433 0 81.011 0.324621 80.4108 0.970082C79.8106 1.61554 79.5087 2.44596 79.5087 3.46511C79.5087 4.48426 79.8069 5.35999 80.4108 6.00545C81.011 6.65091 81.9433 6.97553 83.204 6.97553Z" fill="#F7F7F7"/>
<path d="M101.904 13.3246C100.737 14.7325 100.016 16.635 99.7331 19.0243V10.856H94.6525V35.9308H101.069V22.9084C101.069 20.7229 101.662 19.0469 102.847 17.8768C104.032 16.7067 105.701 16.1216 107.856 16.1216H109.611V10.5352H108.687C105.701 10.5352 103.436 11.4675 101.9 13.3284L101.904 13.3246Z" fill="#F7F7F7"/>
<path d="M137 21.7531C137 19.5374 136.54 17.4651 135.615 15.5439C134.69 13.6188 133.312 12.0637 131.482 10.8784C129.651 9.69319 127.378 9.10059 124.672 9.10059C122.611 9.10059 120.784 9.46295 119.199 10.1877C117.614 10.9124 116.296 11.8825 115.251 13.0979C114.205 14.3133 113.412 15.6986 112.873 17.2538C112.333 18.8089 112.065 20.4169 112.065 22.0778V22.9535C112.065 24.5539 112.333 26.1242 112.873 27.6642C113.412 29.2043 114.213 30.5971 115.273 31.8427C116.334 33.0884 117.674 34.0811 119.289 34.8209C120.905 35.5607 122.792 35.9306 124.948 35.9306C127.103 35.9306 128.851 35.5758 130.466 34.87C132.082 34.1603 133.414 33.1601 134.46 31.8691C135.505 30.5744 136.215 29.0684 136.585 27.3434H130.628C130.353 28.2681 129.719 29.0457 128.734 29.6761C127.748 30.3064 126.488 30.6235 124.948 30.6235C123.408 30.6235 122.086 30.2762 121.067 29.5855C120.048 28.8947 119.297 27.9398 118.806 26.7243C118.485 25.9317 118.27 25.0597 118.157 24.116H137V21.7607V21.7531ZM121.067 15.4042C122.052 14.7436 123.253 14.4115 124.668 14.4115C126.084 14.4115 127.254 14.721 128.179 15.3363C129.103 15.9515 129.802 16.831 130.281 17.9672C130.553 18.6164 130.745 19.3412 130.862 20.1376H118.27C118.399 19.4317 118.584 18.7863 118.833 18.1974C119.342 16.9971 120.086 16.0648 121.071 15.4042H121.067Z" fill="#F7F7F7"/>
<path d="M27.4264 10.9202H6.45834C5.70578 10.9202 5.0957 11.5303 5.0957 12.2828V16.3519C5.0957 17.1044 5.70578 17.7145 6.45834 17.7145H27.4264C28.179 17.7145 28.789 17.1044 28.789 16.3519V12.2828C28.789 11.5303 28.179 10.9202 27.4264 10.9202Z" fill="#0071E2"/>
<path d="M27.4264 29.0383H6.45834C5.70578 29.0383 5.0957 29.6484 5.0957 30.401V34.47C5.0957 35.2226 5.70578 35.8327 6.45834 35.8327H27.4264C28.179 35.8327 28.789 35.2226 28.789 34.47V30.401C28.789 29.6484 28.179 29.0383 27.4264 29.0383Z" fill="#AC00F4"/>
<path d="M22.3307 19.9792H1.36264C0.610075 19.9792 0 20.5893 0 21.3419V25.4109C0 26.1635 0.610075 26.7736 1.36264 26.7736H22.3307C23.0833 26.7736 23.6933 26.1635 23.6933 25.4109V21.3419C23.6933 20.5893 23.0833 19.9792 22.3307 19.9792Z" fill="#F7F7F7"/>
<script xmlns=""/></svg>